<svg width="650" height="844" viewBox="0 0 650 844" fill="none" xmlns="http://www.w3.org/2000/svg">
<path d="M258.843 3.4028C283.934 -4.12582 299.512 0.802134 306.865 18.5464C316.663 42.1394 309.963 83.0846 279.888 182.597C277.626 190.079 281.281 191.043 312.861 191.043C356.101 191.043 359.623 188.018 402.971 114.275C441.752 48.3011 457.449 32.0245 492.582 21.2334C501.034 18.6507 503.823 20.8161 508.193 33.3734C521.204 70.6747 508.325 108.624 458.738 178.719C443.935 199.622 431.822 218.269 431.822 220.136C431.858 222.074 443.181 230.743 457.05 239.409C502.8 268.077 517.053 281.228 520.371 297.72C522.726 309.565 530.524 318.493 552.718 334.885C568.774 346.78 597.897 373.711 617.414 394.765C645.511 425.099 652.142 435.02 649.449 442.692C647.528 448.016 646.498 466.015 647.076 482.608C648.178 515.05 642.301 531.557 623.284 549.244C585.888 584.106 508.39 583.448 454.365 547.866L436.13 535.791L405.531 548.053C354.726 568.34 309.971 563.466 270.457 533.352L248.226 516.521L257.094 531.723C279.497 570.135 334.786 598.325 375.305 591.851C392.348 589.124 394.1 589.721 391.17 597.293C374.537 640.551 357.735 728.222 352.015 801.641L348.705 844H0C20.2846 761.843 46.9095 652.13 54.3305 621.382C95.3736 451.393 101.308 428.599 115.339 385.254C123.029 361.514 140.47 319.385 154.12 291.713C178.867 241.66 178.993 241.132 177.6 200.618C174.232 102.264 208.759 18.3737 258.843 3.4028ZM399.41 354.158C376.82 331.619 363.238 329.831 326.037 344.46C312.638 349.726 295.847 354.1 288.63 354.158L275.58 354.284L287.632 363.981C294.263 369.301 303.953 375.632 309.238 377.934C322.601 383.88 330.402 383.452 352.514 375.492C375.556 367.208 390.596 366.679 403.657 373.614C421.105 382.92 419.166 373.87 399.41 354.158Z" fill="white"/>
</svg>
